<svg xmlns="http://www.w3.org/2000/svg" width="1200" height="520" viewBox="0 0 1200 520"><defs><style>text{font-family:Arial,sans-serif}.t{fill:#fff;font-weight:700}.s{fill:#a8bbd2}.b{fill:#0d1c32;stroke:#28598f;stroke-width:2}.a{stroke:#54a5ff;stroke-width:5;fill:none;marker-end:url(#m)}</style><marker id="m" markerWidth="12" markerHeight="12" refX="10" refY="6" orient="auto"><path d="M0 0L12 6L0 12z" fill="#54a5ff"/></marker></defs><rect width="1200" height="520" rx="28" fill="#07111f"/><text x="55" y="62" class="t" font-size="30">Git: do arquivo alterado ao repositório remoto</text><g transform="translate(50,155)"><rect class="b" width="190" height="135" rx="20"/><text x="95" y="50" text-anchor="middle" class="t" font-size="22">Working tree</text><text x="95" y="87" text-anchor="middle" class="s" font-size="17">edite arquivos</text></g><path class="a" d="M250 222H340"/><g transform="translate(355,155)"><rect class="b" width="190" height="135" rx="20"/><text x="95" y="50" text-anchor="middle" class="t" font-size="22">Staging</text><text x="95" y="87" text-anchor="middle" class="s" font-size="17">git add</text></g><path class="a" d="M555 222H645"/><g transform="translate(660,155)"><rect class="b" width="190" height="135" rx="20"/><text x="95" y="50" text-anchor="middle" class="t" font-size="22">Commit</text><text x="95" y="87" text-anchor="middle" class="s" font-size="17">git commit</text></g><path class="a" d="M860 222H950"/><g transform="translate(965,155)"><rect class="b" width="185" height="135" rx="20"/><text x="92" y="50" text-anchor="middle" class="t" font-size="22">Remoto</text><text x="92" y="87" text-anchor="middle" class="s" font-size="17">git push</text></g><rect x="280" y="350" width="640" height="105" rx="18" fill="#0a2443" stroke="#387fd3"/><text x="600" y="393" text-anchor="middle" class="t" font-size="21">Commits pequenos contam uma história melhor</text><text x="600" y="425" text-anchor="middle" class="s" font-size="18">Adicione só o que pertence à mudança e escreva mensagens específicas.</text></svg>