<svg xmlns="http://www.w3.org/2000/svg" viewBox="0 0 512 512" role="img" aria-labelledby="title desc">
<title id="title">LC</title><desc id="desc">Monograma LC geométrico em azul elétrico e verde mint, com corte diagonal de avanço.</desc>
<defs>
<linearGradient id="blue" x1="0" y1="0" x2="1" y2="1"><stop offset="0%" stop-color="#2878FF"/><stop offset="100%" stop-color="#1765F2"/></linearGradient>
<linearGradient id="mint" x1="0" y1="0" x2="1" y2="1"><stop offset="0%" stop-color="#38E6B0"/><stop offset="100%" stop-color="#18D5A0"/></linearGradient>
<mask id="advanceCut"><rect width="512" height="512" fill="white"/><polygon points="63,356 421,185 436,218 78,389" fill="black"/></mask>
</defs>
<g mask="url(#advanceCut)">
<path d="M118 74H196L174 313H300L254 388H86Z" fill="url(#blue)"/>
<path d="M394 103C360 82 322 72 284 72C197 72 145 133 145 227C145 322 199 382 286 382C327 382 365 371 397 350L359 288C339 300 317 306 294 306C251 306 225 276 225 227C225 178 251 148 294 148C317 148 339 154 358 166Z" fill="url(#mint)"/>
</g></svg>